<?xml version="1.0" encoding="utf-8"?>
<!-- Generator: Adobe Illustrator 25.3.1, SVG Export Plug-In . SVG Version: 6.00 Build 0)  -->
<svg version="1.1" id="Layer_1" xmlns="http://www.w3.org/2000/svg" xmlns:xlink="http://www.w3.org/1999/xlink" x="0px" y="0px"
	 viewBox="0 0 1382 248.3" style="enable-background:new 0 0 1382 248.3;" xml:space="preserve">
<style type="text/css">
	.st0{enable-background:new    ;}
	.st1{fill:#5B22F8;}
	.st2{fill:#4BC4D7;}
</style>
<g class="st0">
	<path class="st1" d="M164.8,187.7v-84.9H30.4v84.9h-5.9V19.3h5.9v78.3h134.4V19.3h5.9v168.3H164.8z"/>
	<path class="st1" d="M317.6,187.7v-28.1c-5,9.9-12.7,17.5-23.1,22.9c-10.4,5.3-22.6,8-36.5,8c-16,0-28.4-3.2-37-9.5
		c-8.6-6.4-13-15.4-13-27.2c0-12.3,5.2-21.5,15.7-27.7c10.5-6.2,26.8-9.6,48.9-10.3l45-1.4v-8c0-12.9-3.9-22.4-11.6-28.6
		c-7.7-6.2-19.4-9.3-35.1-9.3c-14.8,0-26.3,2-34.5,6.1c-8.3,4.1-13.6,10.3-15.9,18.6l-5.2-1.4c5.7-18.9,24.2-28.3,55.6-28.3
		c34.9,0,52.3,14.3,52.3,42.9v81.3H317.6z M317.6,119l-44.6,1.4c-20.6,0.6-35.6,3.6-45,8.8c-9.4,5.3-14.1,13.4-14.1,24.4
		c0,10.1,3.9,17.9,11.8,23.5c7.9,5.6,18.9,8.4,33.2,8.4c7.5,0,14.7-0.9,21.6-2.8c6.8-1.9,12.6-4.5,17.3-7.8
		c6.4-4.4,11.4-9.4,14.7-15c3.4-5.6,5.1-11.3,5.1-17.1V119z"/>
	<path class="st1" d="M406.7,187.7L344,67.2h6.1l59.7,114.6l54.7-114.6h5.9l-69.1,144.5c-4.4,9.3-9,15.6-13.7,19.1
		c-4.7,3.5-10.8,5.2-18.4,5.2c-6.8,0-12.9-0.9-18.4-2.8l1.4-4.7c5.8,1.7,11.4,2.6,16.7,2.6c6.8,0,12-1.5,15.8-4.5
		c3.8-3,7.5-8.4,11.3-16.3L406.7,187.7z"/>
	<path class="st1" d="M494.4,187.7V19.3h5.7v168.3H494.4z"/>
	<path class="st1" d="M540.6,129.2c0,18.1,5.1,32.1,15.2,42.2c10.1,10.1,24.3,15.1,42.6,15.1c13,0,24-2.5,33-7.4
		c9-5,15.1-11.9,18.4-20.9h5.4c-3.3,10.5-9.9,18.7-19.8,24.5c-9.9,5.8-22.2,8.7-37,8.7c-20.3,0-35.9-5.5-46.9-16.4
		c-11-10.9-16.5-26.4-16.5-46.6c0-13.2,2.5-24.7,7.4-34.4c5-9.7,12.1-17.3,21.6-22.6c9.4-5.3,20.6-8,33.5-8
		c19.2,0,34.1,5.4,44.7,16.2c10.6,10.8,15.9,25.7,15.9,44.9v4.7H540.6z M652.4,124.5c0-17.6-4.8-31.4-14.5-41.3
		c-9.7-9.9-23.1-14.9-40.4-14.9c-17,0-30.5,5-40.7,15.1c-10.1,10.1-15.5,23.7-16.2,41H652.4z"/>
	<path class="st1" d="M735.4,187.7L672.7,67.2h6.1l59.7,114.6l54.7-114.6h5.9L730,211.7c-4.4,9.3-9,15.6-13.7,19.1
		c-4.7,3.5-10.8,5.2-18.4,5.2c-6.8,0-12.9-0.9-18.4-2.8l1.4-4.7c5.8,1.7,11.4,2.6,16.7,2.6c6.8,0,12-1.5,15.8-4.5
		c3.8-3,7.5-8.4,11.3-16.3L735.4,187.7z"/>
</g>
<g class="st0">
	<path class="st1" d="M963.6,125.9c0,12.9-2.9,24.2-8.7,34.1c-5.8,9.8-14.3,17.5-25.3,23.1c-11.1,5.6-24.1,8.4-39,8.4
		c-22.2,0-39.6-5.7-52.3-17.2c-12.7-11.5-19.1-27.3-19.1-47.4c0-12.9,2.9-24.2,8.7-34.1c5.8-9.8,14.2-17.5,25.2-23.1
		c11-5.6,24-8.4,38.9-8.4c22.3,0,39.8,5.7,52.6,17.2C957.2,90,963.6,105.8,963.6,125.9z M934.4,126.4c0-13.7-3.7-24.2-11.2-31.7
		c-7.5-7.5-18-11.2-31.7-11.2c-13.7,0-24.3,3.7-31.8,11.2c-7.5,7.5-11.3,18-11.3,31.7c0,13.7,3.7,24.2,11.2,31.7
		c7.5,7.5,18,11.2,31.5,11.2c13.8,0,24.5-3.7,32.1-11.2C930.6,150.6,934.4,140,934.4,126.4z"/>
	<path class="st1" d="M994.5,187.7V65.1h27.8v21c5.8-7.4,12.6-13,20.4-17c7.8-3.9,16.1-5.9,24.9-5.9c3.8,0,8.2,0.4,13.2,1.2
		l-3.3,23.6c-4.7-0.8-9-1.2-13-1.2c-12.4,0-22.5,3.5-30.2,10.6c-7.7,6.9-11.6,15-11.6,24.3v66H994.5z"/>
	<path class="st1" d="M1148.2,187.7l-57.5-122.6h31.6l41.5,95.5l41.7-95.5h30.4l-57.5,122.6H1148.2z"/>
	<path class="st1" d="M1347.7,187.7V170c-7.2,7.2-15.1,12.5-23.6,15.9c-8.5,3.4-18.5,5.1-29.9,5.1c-15.9,0-28.1-3.3-36.8-9.8
		c-8.6-6.5-13-15.8-13-27.7c0-13.4,5.6-23.3,16.9-29.8c11.2-6.5,29-10.2,53.2-11l32.5-0.9v-4c0-16.7-11-25-33-25
		c-10.7,0-18.9,1.3-24.8,3.9c-5.8,2.6-9.6,6.6-11.3,11.9l-25.2-2.8c2.8-11.8,9.3-20.5,19.3-26.1c10.1-5.6,24.4-8.4,42.9-8.4
		c20,0,34.8,3.9,44.4,11.8c9.7,7.9,14.5,19.9,14.5,36.1v78.5H1347.7z M1347,130.4l-32.1,0.9c-14.8,0.5-25.4,2.3-31.9,5.4
		c-6.5,3.1-9.8,7.9-9.8,14.4c0,5.8,2.5,10.3,7.5,13.6c5,3.2,12,4.8,21,4.8c6.8,0,13.2-1,19.5-2.9c6.2-2,11.6-4.8,16.2-8.4
		c6.4-4.9,9.7-11.4,9.7-19.6V130.4z"/>
</g>
<g>
	<g>
		<path class="st2" d="M1890.3,402.7c3.2,0,3.2-5,0-5C1887.1,397.7,1887.1,402.7,1890.3,402.7L1890.3,402.7z"/>
	</g>
</g>
</svg>
